<?xml version="1.0" encoding="utf-8"?>
<!-- Generator: Adobe Illustrator 25.3.1, SVG Export Plug-In . SVG Version: 6.00 Build 0)  -->
<svg version="1.1" id="Camada_1" xmlns="http://www.w3.org/2000/svg" xmlns:xlink="http://www.w3.org/1999/xlink" x="0px" y="0px"
	 viewBox="0 0 792 666.1" style="enable-background:new 0 0 792 666.1;" xml:space="preserve">
	<style type="text/css">
		.st0{fill:#FF74D1;}
		.st1{fill:#373737;}
		.st2{fill:#FFFFFF;}
		.st3{fill:url(#gradientMouth);}
	</style>
	<circle id="circle" class="st0" cx="402.9" cy="290.3" r="290.3"/>
	<g id="eyeBall">
		<g id="eyeBall--right">
			<circle id="global" class="st1" cx="319.8" cy="430.5" r="57.8"/>
			<ellipse transform="matrix(0.3827 -0.9239 0.9239 0.3827 -219.8423 560.8975)" class="st2" cx="309.8" cy="445" rx="30" ry="30"/>
			<circle class="st2" cx="334.9" cy="398.6" r="12.7"/>
		</g>
		<g id="eyeBall--left">
			<ellipse id="global-2" transform="matrix(8.248051e-02 -0.9966 0.9966 8.248051e-02 15.9723 880.2835)" class="st1" cx="486.1" cy="431.5" rx="57.8" ry="57.8"/>
			<circle class="st2" cx="476.1" cy="445" r="30"/>
			<circle class="st2" cx="501.2" cy="398.6" r="12.7"/>
		</g>
	</g>
	<g id="arms">
		<path class="st1" d="M141,311.5c4.1,0,7.5,3.3,7.5,7.5c0,2.5-1.2,4.8-3.3,6.2c-21.9,14.9-34.7,31.1-37.8,48.2
			c-1.4,7.4-0.7,13.4,0,19.2c1,8.4,2,17.1-3.9,27.2c-6.4,11-15.4,14-24.1,16.9c-7.2,2.4-14.6,4.9-22.9,12.2
			c-19.8,17.6-22.9,44.4-23.3,49.6c-1,12.3,1.7,18.3,4.8,25.3c3.2,7.2,6.9,15.3,5.7,29.3c-1.4,17.2-9,28.4-15.6,38.2
			s-12.5,18.4-13.2,32.8c-0.5,10.2,1.8,20.8,6.8,31.3c1.7,3.8,0.1,8.2-3.7,9.9c-3.7,1.7-8,0.1-9.8-3.5c-6.1-12.7-8.9-25.7-8.3-38.5
			c0.9-18.5,8.8-30.2,15.7-40.5c6.4-9.5,12-17.7,13.1-31c0.8-10.1-1.5-15.3-4.5-21.9c-3.5-7.7-7.4-16.5-6.1-32.6
			c0.7-8.7,4.8-38.7,28.3-59.6c10.6-9.4,20.3-12.6,28.1-15.3c8.3-2.8,12.5-4.4,15.9-10.2c3.4-5.8,2.8-10.6,2-18
			c-0.7-6.2-1.6-14,0.2-23.6c3.9-21.2,18.7-40.7,44.1-57.9C138,312,139.5,311.5,141,311.5z"/>
	</g>
	<g id="arms-2">
		<path class="st1" d="M651,311.5c1.5,0,3,0.5,4.2,1.3c25.4,17.2,40.3,36.7,44.1,57.9c1.8,9.6,0.9,17.4,0.2,23.6
			c-0.8,7.3-1.4,12.2,2,18c3.4,5.8,7.6,7.4,15.9,10.2c7.8,2.6,17.5,5.9,28.1,15.3c23.4,20.9,27.5,50.9,28.2,59.6
			c1.3,16.1-2.6,24.9-6.1,32.6c-3,6.6-5.3,11.8-4.5,21.9c1.1,13.3,6.7,21.5,13.1,31c7,10.3,14.8,22,15.7,40.5
			c0.6,12.7-2.2,25.7-8.3,38.5c-1.8,3.7-6.3,5.3-10,3.5c-3.7-1.8-5.3-6.3-3.5-10l0,0c5-10.5,7.3-21,6.9-31.3
			c-0.7-14.3-6.5-22.9-13.2-32.8c-6.7-9.9-14.2-21-15.6-38.2c-1.2-14,2.5-22.1,5.8-29.3c3.1-7,5.9-13,4.9-25.3
			c-0.4-5.2-3.5-32-23.3-49.6c-8.3-7.4-15.7-9.8-22.9-12.2c-8.7-2.9-17.7-5.9-24.1-16.9c-5.9-10.1-4.9-18.8-3.9-27.2
			c0.7-5.8,1.3-11.8,0-19.2c-3.1-17.1-15.8-33.3-37.8-48.2c-3.4-2.3-4.3-7-2-10.4C646.2,312.8,648.5,311.5,651,311.5z"/>
	</g>
	<linearGradient id="gradientMouth" gradientUnits="userSpaceOnUse" x1="390.0234" y1="221.037" x2="390.0234" y2="343.1324" gradientTransform="matrix(-1 0 0 1 791.99 -1.9326)">
		<stop  offset="0" style="stop-color:#373737"/>
		<stop  offset="1" style="stop-color:#212121"/>
	</linearGradient>
	<path id="mouth" class="st3" d="M347.6,326c-10.3-139.8,120.1-145.1,108.7,0C428.2,347.6,370.2,344.9,347.6,326z"/>
</svg>
