<svg viewBox="0 0 883.71 883.71">
    <defs>
        <style>
            .cls-1{fill:#ffcc3f;}
            .cls-2{fill:#373737;}
            .cls-3{fill:#fff;}
        </style>
    </defs>
    <path class="cls-1" d="M394,144.06c-23.74,72.85-53.69,164.4-53.69,164.4l-170.23.21L0,309l48,33.89c26.38,18.62,88.27,62.22,137.44,96.92S274.89,503.42,275.1,504s-6.94,19.63-15.66,42.19c-61.05,157.42-130.19,337.2-129.88,337.5s312.5-264.35,313.56-263.55c1.36-.7,310.82,263.75,311,263.55s-32.37-85-72.3-188.38S609,506.25,609,505.14c-.11-2.23,22.8-18.62,234.53-167.84L883.71,309l-170.12-.3-170.23-.21S516,224.9,490.19,145.58,443.12,0,443.12,0,417.79,71.12,394,144.06Z" transform="translate(0 0)"/>
    <g id="eyeBall">
        <g id="eyeBall--right">
            <circle id="global" class="cls-2" cx="525.01" cy="390.89" r="57.83"/>
            <circle class="cls-3" cx="534.96" cy="376.4" r="29.98"/>
            <circle class="cls-3" cx="509.86" cy="422.71" r="12.66" transform="translate(10.95 858.27) rotate(-80.78)"/>
        </g>
        <g id="eyeBall--left">
            <circle id="global-2" data-name="global" class="cls-2" cx="358.7" cy="389.89" r="57.83"/>
            <circle class="cls-3" cx="368.65" cy="376.4" r="29.98"/>
            <circle class="cls-3" cx="343.55" cy="422.71" r="12.66"/>
        </g>
    </g>
    <path id="mouth" class="cls-2" d="M475.52,497.51a5,5,0,0,1-3.95-1.93c-10.17-13.05-20.17-19.67-29.72-19.67s-19.54,6.62-29.72,19.67a5,5,0,0,1-7.89-6.15c12.17-15.61,24.82-23.52,37.61-23.52h0c12.79,0,25.45,7.91,37.61,23.52a5,5,0,0,1-3.94,8.08Z" transform="translate(0 0)"/>
</svg>