<svg id="Camada_1" data-name="Camada 1" xmlns="http://www.w3.org/2000/svg" viewBox="0 0 319.48 317.93"><path d="M0,0V317.93H319.48V0ZM303,121.66c-75.5,53.24-83.63,59.09-83.63,59.88,0,.4,11.73,31,26,67.83s25.87,67.1,25.79,67.17-110.43-94.23-110.92-94c-.37-.29-111.69,94.09-111.82,94s24.53-64.21,46.34-120.35c3.11-8.05,5.66-14.84,5.59-15.05s-14.47-10.53-32-22.9L19.29,123.67,2.16,111.59l60.67-.11,60.7-.07s10.69-32.66,19.15-58.63,17.56-51.4,17.56-51.4S167.88,25,177,53.3,196,111.39,196,111.39l60.71.07,60.66.11Z" transform="translate(0 0)"/></svg>