<svg id="Camada_1" data-name="Camada 1" xmlns="http://www.w3.org/2000/svg" viewBox="0 0 883.71 883.71"><defs><style>.cls-1{fill:#f14e75;}.cls-2{fill:#ce3a5e;}.cls-3{fill:#f37593;}.cls-4{fill:#373737;}.cls-5{fill:#fff;}.cls-6{fill:#c0e7ff;isolation:isolate;opacity:0.43;}</style></defs><path class="cls-1" d="M441.85,0,883.71,883.71H0Z"/><path class="cls-2" d="M720.61,557.51c96.4,286,96.4,286-174.56,326.2H883.71Z"/><path class="cls-3" d="M332.72,218.27,441.85,0l40.32,80.64s-29.24-46.81-52.44-10.41C377.41,152.32,332.72,218.27,332.72,218.27Z"/><circle class="cls-4" cx="532.01" cy="448.89" r="57.83"/><circle class="cls-5" cx="543.63" cy="430.85" r="29.98"/><circle class="cls-5" cx="518.53" cy="477.16" r="12.66" transform="translate(-35.53 912.56) rotate(-80.78)"/><circle class="cls-4" cx="351.7" cy="448.89" r="57.83"/><circle class="cls-5" cx="363.32" cy="430.85" r="29.98"/><circle class="cls-5" cx="338.22" cy="477.16" r="12.66"/><path class="cls-1" d="M293.87,508.21H409.52s0-36.88-57.82-36.88S293.87,508.21,293.87,508.21Z"/><path class="cls-1" d="M474.18,508.21H589.84s0-36.88-57.83-36.88S474.18,508.21,474.18,508.21Z"/><path class="cls-4" d="M475.52,562.51a5,5,0,0,1-3.95-1.93c-10.17-13.05-20.17-19.67-29.72-19.67s-19.54,6.62-29.72,19.67a5,5,0,0,1-7.89-6.15c12.17-15.61,24.82-23.52,37.61-23.52h0c12.79,0,25.45,7.91,37.61,23.52a5,5,0,0,1-3.94,8.08Z"/><path class="cls-4" d="M269.59,850.86a7.45,7.45,0,0,1-4.58-1.57c-51.48-39.86-87.65-84.2-107.5-131.8-19.95-47.83-23.93-100.09-11.84-155.34a7.5,7.5,0,0,1,14.65,3.21C137.48,669.71,175.8,761.25,274.19,837.43a7.5,7.5,0,0,1-4.6,13.43Z"/><path class="cls-4" d="M609.39,850.86a7.5,7.5,0,0,1-4.86-13.21c92.32-78.65,131-167.95,118.36-273a7.5,7.5,0,0,1,14.9-1.8c6.71,55.62-.79,108.31-22.29,156.63-20.6,46.3-54.66,89.9-101.25,129.59A7.48,7.48,0,0,1,609.39,850.86Z"/><path class="cls-6" d="M287.29,480.62c1.62-4.1,4.44-9.12,9.6-12.12s9.06-2.09,26.5-1.8c10.42.17,15.64.08,20.49-.73,9-1.5,9.81-3.33,18.19-4a50.28,50.28,0,0,1,18.19,1.51c4.15,1.22,7.56,2.22,11.12,5.06,3.1,2.47,4.05,4.54,7.58,6.57s5.57.46,8.08,2.52c1.53,1.25,3.3,3.69,3,6.07-.59,5.26-11.17,10.1-19.7,8.08-4.68-1.11-4.51-3.28-10.11-5-5.92-1.88-11.13-1-17.18,0-11.63,2-12.83,5.35-18.19,4-6.12-1.5-5.57-6.14-12.63-8.59-7.35-2.56-14.42.23-17.68,1.52-4.09,1.61-9.56,3.76-11.12,8.58-.77,2.39-.18,5,1,10.11,1.67,7.21,3.16,8.1,2.53,10.61-1.16,4.6-8.12,9.33-13.64,7.07-5-2-6.38-8.81-5.49-13.22,1.09-5.46,5.46-6.3,6.5-11,.71-3.25-.19-8.09-7.08-15.16"/><path class="cls-6" d="M593.41,480.62c-1.61-4.1-4.43-9.12-9.6-12.12s-9-2.09-26.49-1.8c-10.43.17-15.64.08-20.5-.73-9-1.5-9.8-3.33-18.19-4a50.28,50.28,0,0,0-18.19,1.51c-4.14,1.22-7.55,2.22-11.11,5.06-3.11,2.47-4.06,4.54-7.58,6.57s-5.57.46-8.08,2.52c-1.53,1.25-3.3,3.69-3,6.07.6,5.26,11.18,10.1,19.71,8.08,4.68-1.11,4.51-3.28,10.1-5,5.93-1.88,11.14-1,17.18,0,11.64,2,12.84,5.35,18.19,4,6.12-1.5,5.58-6.14,12.63-8.59,7.36-2.56,14.43.23,17.69,1.52,4.08,1.61,9.56,3.76,11.11,8.58.78,2.39.18,5-1,10.11-1.66,7.21-3.16,8.1-2.52,10.61,1.16,4.6,8.12,9.33,13.64,7.07,5-2,6.38-8.81,5.49-13.22-1.1-5.46-5.46-6.3-6.5-11-.72-3.25.19-8.09,7.07-15.16"/></svg>