<svg id="hand" xmlns="http://www.w3.org/2000/svg" viewBox="0 0 327.92 416.47"><defs><style>.cls-1{fill:#fff;}.cls-2{fill:#f2f2f2;}.cls-3{fill:#6a6969;}</style></defs><g id="hand_s"><path id="bg" class="cls-1" d="M277.74,225.42a53,53,0,0,0-18.61,3.46,50.14,50.14,0,0,0-44.66-27.45,53.25,53.25,0,0,0-19.56,3.69,50.23,50.23,0,0,0-58.24-24.6c0-5.61,0-11.39,0-17.17l0-44.95c0-12,0-17.54,0-20.42h0c0-25.61-22.38-46.45-49.9-46.45a50.21,50.21,0,0,0-50.15,50.16V254.57c-18.46,6.18-34.76,23.22-35.45,47.55-1.07,38.07,2.05,86.23,36,121.11,28.63,29.45,73.44,43.77,137,43.77,57.16,0,99.43-16.81,125.65-50C318.25,393.74,328,362.36,328,326.27l-.09-50.74A50.2,50.2,0,0,0,277.74,225.42Z" transform="translate(-0.56 -51.03)"/><path id="color" class="cls-2" d="M277.74,225.42a53,53,0,0,0-18.62,3.46,50.14,50.14,0,0,0-44.66-27.45,53.25,53.25,0,0,0-19.56,3.69,50.22,50.22,0,0,0-58.23-24.6c0-5.61,0-11.39,0-17.17l0-44.95c0-12,0-17.54,0-20.42h.05c0-25.61-22.38-46.45-49.89-46.45a50.21,50.21,0,0,0-50.15,50.16V254.57c-18.47,6.18-34.77,23.22-35.46,47.55-1.07,38.07,2.05,86.23,36,121.11,28.63,29.45,73.45,43.77,137,43.77,57.15,0,99.43-16.81,125.64-50C318.24,393.74,328,362.36,328,326.27l-.09-50.74A50.19,50.19,0,0,0,277.74,225.42Zm-103.55,219c-134.55,0-152.49-68.2-150.42-141.69C24.27,285,39.51,274.57,52,274.57v32.5c0,4.09,2.84,4.56,3.68,4.56s3.59-.46,3.59-4.55V101.69a27.6,27.6,0,0,1,27.6-27.6c14,0,27.34,10,27.34,23.9,0,.05-.07,101.33-.09,126.25,0,0,0,.1,0,.15v5.21a4.5,4.5,0,0,0,9,0v-1.35a27.59,27.59,0,0,1,55.18.46l0,20a4.43,4.43,0,1,0,8.85,0v-1.14c0-13.88,13.48-23.56,27.35-23.56A27.55,27.55,0,0,1,242,251.59l.06,20.22a4.31,4.31,0,1,0,8.61,0l0-1.54c0-12.61,13.66-22.29,27.09-22.29a27.59,27.59,0,0,1,27.59,27.6l.09,50.7C305.42,373.43,287.08,444.45,174.19,444.45Z" transform="translate(-0.56 -51.03)"/><path id="stroke" class="cls-3" d="M174.19,467.5c-63.69,0-108.62-14.37-137.36-43.92-34-35-37.18-83.31-36.11-121.47.75-26.66,19.49-42.42,35.46-47.9V101.69A50.71,50.71,0,0,1,86.83,51c27.78,0,50.39,21.07,50.39,47l0,.5c0,3.07,0,8.9,0,19.92l0,61.46a50.72,50.72,0,0,1,58,24.63,53.57,53.57,0,0,1,19.33-3.56,50.43,50.43,0,0,1,44.9,27.32,53.91,53.91,0,0,1,18.38-3.33,50.7,50.7,0,0,1,50.64,50.61l.09,50.74c0,36.2-9.77,67.69-28.25,91.07C273.91,450.62,231.5,467.5,174.19,467.5ZM86.83,52a49.71,49.71,0,0,0-49.65,49.66V254.93l-.35.11C21.1,260.31,2.46,275.8,1.72,302.14c-1.06,38,2,86,35.83,120.75,28.53,29.34,73.23,43.61,136.64,43.61,57,0,99.13-16.75,125.25-49.78,18.34-23.2,28-54.48,28-90.45l-.09-50.74a49.69,49.69,0,0,0-49.64-49.61,52.88,52.88,0,0,0-18.44,3.43l-.42.15-.21-.39a49.42,49.42,0,0,0-44.21-27.18,52.43,52.43,0,0,0-19.38,3.66l-.41.16-.21-.39A49.73,49.73,0,0,0,136.8,181l-.63.19,0-62.79c0-11.65,0-17.5,0-20.41v-.51h.05C135.93,72.38,113.88,52,86.83,52ZM174.19,445C116.91,445,77.27,432.82,53,407.86c-28.16-29-30.68-71.39-29.73-105.11.48-17.16,15.23-28.68,28.69-28.68h.5v33c0,3.95,2.86,4.06,3.18,4.06.52,0,3.09-.19,3.09-4.05V101.69a28.13,28.13,0,0,1,28.1-28.1c13.39,0,27.84,9.33,27.84,24.39h0s0,1,0,66.4c0,24.66,0,49.22,0,59.86v5.36a4,4,0,0,0,8,0v-1.35a28.09,28.09,0,0,1,56.18.46l0,20a3.93,3.93,0,1,0,7.85,0v-1.14c0-14.86,14.45-24.06,27.85-24.06a28.1,28.1,0,0,1,28,28.1l.06,20.22a3.81,3.81,0,1,0,7.61,0l0-1.53c0-13.44,14.54-22.8,27.59-22.8a28.12,28.12,0,0,1,28.09,28.1l.09,50.7c0,31.51-7.87,57.45-23.39,77.08C260.71,431,224.26,445,174.19,445ZM51.46,275.07c-12.86.28-26.73,11.34-27.19,27.7-.94,33.53,1.55,75.7,29.45,104.4C77.79,431.92,117.19,444,174.19,444c108.05,0,130.73-64,130.73-117.67l-.09-50.7a27.12,27.12,0,0,0-27.09-27.1c-12.58,0-26.59,9-26.59,21.79l0,1.54a4.81,4.81,0,1,1-9.61,0l-.06-20.22a27.1,27.1,0,0,0-27-27.1c-12.92,0-26.85,8.82-26.85,23.06v1.14a4.93,4.93,0,1,1-9.85,0l0-20a27.09,27.09,0,0,0-54.18-.45v1.34a5,5,0,0,1-10,0v-5.37c0-10.63,0-35.19,0-59.85,0-32.45,0-66,0-66.39,0-14-13.88-23.4-26.84-23.4a27.13,27.13,0,0,0-27.1,27.1V307.08c0,4.91-3.67,5.05-4.09,5.05-1.55,0-4.18-1.06-4.18-5.06Z" transform="translate(-0.56 -51.03)"/></g></svg>