<?xml version="1.0" encoding="utf-8"?>
<!-- Generator: Adobe Illustrator 25.3.1, SVG Export Plug-In . SVG Version: 6.00 Build 0)  -->
<svg version="1.1" id="hand" xmlns:svgjs="http://svgjs.com/svgjs"
	 xmlns="http://www.w3.org/2000/svg" xmlns:xlink="http://www.w3.org/1999/xlink" x="0px" y="0px" viewBox="0 0 380.1 468"
	 style="enable-background:new 0 0 380.1 468;" xml:space="preserve">
<style type="text/css">
	.st0{fill:#FFFFFF;}
	.st1{fill:#F2F2F2;}
	.st2{fill:#6A6969;}
</style>
<path id="bg" class="st0" d="M330,112.1c-4.4,0-8.8,0.6-13.2,1.7v-13.3c0-27.6-22.4-50.1-50-50.1c-4.7,0-9.3,0.6-13.6,1.8v-2.1
	c0-13.4-5.2-25.9-14.7-35.4C229.1,5.2,216.5,0,203.1,0c-13.2,0-25.7,5.1-35.1,14.4c-9.4,9.3-14.7,21.6-14.9,34.8l0,0.2v0.2v5.5
	c-4.4-1.2-9-1.8-13.6-1.8c-27.6,0-50.1,22.5-50.1,50.1c0,0,0,102.4,0,162.1c-10.4-10.1-23.7-15.6-37.7-15.6
	c-13.6,0-26.4,5.4-36.2,15.1c-19.1,19.1-20.7,48.3-4.1,73c2.9,4.8,22,34.6,55.4,64.5c21.1,18.9,43.7,33.9,67.2,44.8
	c29.8,13.8,61,20.8,92.7,20.8c56.7,0,98.8-16.8,125.1-49.8c18.6-23.4,28.4-54.7,28.4-90.6L380,162.1
	C380,134.5,357.6,112.1,330,112.1z"/>
<g id="hand_x5F_s">
	<path id="color" class="st1" d="M330,112.1c-4.4,0-8.8,0.6-13.2,1.7v-13.3c0-27.6-22.4-50.1-50-50.1c-4.7,0-9.3,0.6-13.6,1.8v-2.1
		c0-13.4-5.2-25.9-14.7-35.4C229.1,5.2,216.5,0,203.1,0c-13.2,0-25.7,5.1-35.1,14.4c-9.4,9.3-14.7,21.6-14.9,34.8l0,0.2v0.2v5.5
		c-4.4-1.2-9-1.8-13.6-1.8c-27.6,0-50.1,22.5-50.1,50.1c0,0,0,102.4,0,162.1c-10.4-10.1-23.7-15.6-37.7-15.6
		c-13.6,0-26.4,5.4-36.2,15.1c-19.1,19.1-20.7,48.3-4.1,73c2.9,4.8,22,34.6,55.4,64.5c21.1,18.9,43.7,33.9,67.2,44.8
		c29.8,13.8,61,20.8,92.7,20.8c56.7,0,98.8-16.8,125.1-49.8c18.6-23.4,28.4-54.7,28.4-90.6L380,162.1
		C380,134.5,357.6,112.1,330,112.1z M226.6,445.5C226.6,445.5,226.6,445.5,226.6,445.5c-124.5,0-196.3-119.8-196.3-119.8
		c-10.2-14.9-11-32.8,1.1-44.9c5.8-5.8,13-8.5,20.3-8.5c8,0,16.1,3.3,22.4,9.6c0,0,15.6,15.6,24,24c3.8,3.8,6.9,5.1,9.1,5.1
		c3,0,4.6-2.3,4.6-4c0-2.1,0-203.8,0-203.8c0-15.2,12.3-27.5,27.5-27.5c14,0,27.3,9.6,27.3,23.8c0,0.1-0.1,101.1-0.1,126
		c0,0.1,0,0.1,0,0.2v9.7c0,2.5,2,4.5,4.5,4.5h0c0,0,0,0,0,0c2.5,0,4.5-2,4.5-4.5V49.6c0.2-15,12.5-27.1,27.5-27.1
		c15.2,0,27.5,12.3,27.5,27.5l0,186.5c0,2.4,2,4.4,4.4,4.4c2.4,0,4.4-2,4.4-4.4l0-140.2c0-13.9,13.5-23.5,27.3-23.5
		c15.2,0,27.5,12.3,27.5,27.5l0,138.9c0,2.4,1.9,4.3,4.3,4.3c2.4,0,4.4-3.1,4.4-5.4l0-81.5c0-12.6,13.6-22.3,27-22.3
		c15.2,0,27.5,12.3,27.5,27.5l0.1,165.4C357.6,374.6,338.5,445.5,226.6,445.5z"/>
	<path id="stroke" class="st2" d="M226.6,468.5c-31.8,0-63-7-92.9-20.8c-23.5-10.9-46.2-26-67.3-44.9c-33.2-29.6-52-59-55.5-64.6
		c-16.7-24.8-15-54.4,4.2-73.6c9.8-9.8,22.8-15.3,36.5-15.3c13.7,0,26.8,5.3,37.2,15V103.4c0-27.9,22.7-50.6,50.6-50.6
		c4.4,0,8.9,0.5,13.1,1.6l0-5.2c0.2-13.3,5.6-25.8,15.1-35.2c9.5-9.4,22.1-14.5,35.5-14.5c13.5,0,26.2,5.3,35.7,14.8
		c9.5,9.6,14.8,22.2,14.8,35.7v1.5c4.3-1.1,8.7-1.6,13.1-1.6c27.8,0,50.5,22.7,50.5,50.6v12.7c4.2-1,8.5-1.6,12.7-1.6
		c27.9,0,50.6,22.7,50.6,50.5l0.1,165.4c0,36-9.9,67.5-28.6,90.9C325.7,451.7,283.5,468.5,226.6,468.5z M51.7,250.3
		c-13.4,0-26.2,5.3-35.8,15c-18.8,18.8-20.5,47.9-4.1,72.4c3.4,5.6,22.2,34.8,55.3,64.4c21.1,18.8,43.6,33.9,67.1,44.7
		c29.7,13.8,60.8,20.8,92.5,20.8c56.5,0,98.5-16.7,124.7-49.6c18.5-23.3,28.3-54.5,28.3-90.3l-0.1-165.4c0-27.3-22.2-49.5-49.6-49.5
		c-4.3,0-8.7,0.6-13,1.7l-0.6,0.2v-14c0-27.3-22.2-49.6-49.5-49.6c-4.6,0-9.1,0.6-13.5,1.7l-0.6,0.2v-2.8c0-13.2-5.2-25.7-14.5-35
		c-9.4-9.4-21.8-14.5-35-14.5c-13.1,0-25.4,5.1-34.8,14.3c-9.3,9.2-14.6,21.4-14.8,34.5l0,0.4v6.1l-0.6-0.2
		c-4.4-1.2-8.9-1.8-13.5-1.8c-27.3,0-49.6,22.2-49.6,49.6v163.2l-0.8-0.8C78.7,255.8,65.5,250.3,51.7,250.3z M226.6,446L226.6,446
		c-64.5,0-114.5-32.6-145.2-60c-33.2-29.6-51.4-59.7-51.6-60c-10.9-16-10.5-33.9,1.2-45.5c5.6-5.6,12.9-8.7,20.6-8.7
		c8.3,0,16.4,3.5,22.7,9.8l24,24c4.1,4.1,7,4.9,8.8,4.9c2.7,0,4.1-2,4.1-3.5V103.4c0-7.5,2.9-14.5,8.2-19.8
		c5.3-5.3,12.3-8.2,19.8-8.2c13.3,0,27.8,9.3,27.8,24.3c0,0,0,0,0,0c0,0,0,0.9,0,62.1c0,26,0,52.7,0,63.9l0,9.9c0,2.2,1.8,4,4,4
		c1.1,0,2.1-0.4,2.8-1.2c0.8-0.8,1.2-1.8,1.2-2.8V49.6c0.2-15.2,12.8-27.6,28-27.6c7.5,0,14.5,2.9,19.8,8.2s8.2,12.3,8.2,19.8
		l0,186.5c0,2.2,1.8,3.9,3.9,3.9c2.2,0,3.9-1.8,3.9-3.9l0-140.2c0-14.8,14.4-24,27.8-24c15.4,0,28,12.6,28,28l0,138.9
		c0,1,0.4,2,1.1,2.7c0.7,0.7,1.7,1.1,2.7,1.1c2,0,3.9-2.8,3.9-4.9l0-81.5c0-13.4,14.5-22.8,27.5-22.8c15.5,0,28,12.6,28,28
		l0.1,165.4C358.1,371.8,341,446,226.6,446z M51.7,272.8c-7.4,0-14.5,3-19.9,8.4c-11.3,11.3-11.7,28.7-1.1,44.3
		c0.2,0.3,18.3,30.3,51.4,59.8c30.5,27.2,80.3,59.7,144.5,59.7h0c113.5,0,130.5-73.6,130.5-117.5L357,162.1c0-14.9-12.1-27-27-27
		c-12.5,0-26.5,8.9-26.5,21.8l0,81.5c0,2.7-2.2,5.9-4.9,5.9c-1.3,0-2.5-0.5-3.4-1.4c-0.9-0.9-1.4-2.1-1.4-3.4l0-138.9
		c0-14.9-12.1-27-27-27c-12.9,0-26.8,8.8-26.8,23l0,140.2c0,2.7-2.2,4.9-4.9,4.9c-2.7,0-4.9-2.2-4.9-4.9l0-186.5
		c0-7.2-2.8-14-7.9-19.1S210.3,23,203.1,23c-14.7,0-26.8,11.9-27,26.6v185.9c0,1.3-0.5,2.6-1.5,3.5c-0.9,0.9-2.2,1.5-3.5,1.5
		c-2.8,0-5-2.2-5-5l0-9.9c0-11.2,0-37.9,0-63.9c0-31.8,0-61.8,0-62.1c0-14.4-13.9-23.4-26.8-23.4c-14.9,0-27,12.1-27,27v203.8
		c0,1.9-1.8,4.5-5.1,4.5c-1.9,0-5.2-0.9-9.5-5.2l-24-24C67.6,276.2,59.8,272.8,51.7,272.8z"/>
</g>
</svg>
