<svg id="Camada_1" data-name="Camada 1" xmlns="http://www.w3.org/2000/svg" viewBox="0 0 512 512"><path d="M442.18,0H69.82A69.82,69.82,0,0,0,0,69.82V442.18A69.82,69.82,0,0,0,69.82,512H442.18A69.82,69.82,0,0,0,512,442.18V69.82A69.82,69.82,0,0,0,442.18,0ZM306,408.81c-8.09,1.58-11-3.34-11-7.47,0-5.24.2-22,.2-43.06,0-14.72-5.2-24.37-10.79-29.09,35.58-3.87,73-17.16,73-77.55A60.25,60.25,0,0,0,341,209.45c1.6-4,7.13-19.95-1.6-41.62,0,0-13.23-4.25-43.63,16.11a153.73,153.73,0,0,0-80,0c-30.61-20.33-44-16.11-44-16.11-8.58,21.67-3.2,37.64-1.39,41.62a60,60,0,0,0-16.21,42.24c0,60.25,37.21,73.75,72.73,77.71a33.17,33.17,0,0,0-10.3,21c-9.1,4-32.29,11-46.54-13.06,0,0-8.44-15.13-24.5-16.21,0,0-15.68-.2-1.13,9.55,0,0,10.53,4.85,17.8,23,0,0,9.4,30.57,53.91,21.09.17,13.09.17,22.57.17,26.73s-2.91,9-10.91,7.57C141.85,388.31,96,329.37,96,259.9c0-86.84,71.59-157.24,160-157.24h0c88.35,0,160,70.4,159.85,157.18C415.85,329.19,370,388.16,306,408.81Z"/></svg>