<svg id="Camada_1" data-name="Camada 1" xmlns="http://www.w3.org/2000/svg" viewBox="0 0 385.54 372.18"><defs><style>.cls-1,.cls-2{fill:none;}.cls-1,.cls-2,.cls-4{stroke:#000;stroke-miterlimit:10;}.cls-1{stroke-width:3px;}.cls-1,.cls-2,.cls-3,.cls-4{opacity:0.05;}.cls-2{stroke-width:2px;}.cls-4{stroke-width:4px;}</style></defs><polygon class="cls-1" points="343.65 15.8 329.25 41 343.65 41 343.65 15.8"/><path class="cls-1" d="M328,108c0,.19,3.73,19.64,3.73,19.64" transform="translate(-8.71 -8.77)"/><line class="cls-1" x1="210.26" y1="41.19" x2="226.36" y2="52.08"/><path class="cls-1" d="M68.76,8.94c-.09.85,0,10,0,10" transform="translate(-8.71 -8.77)"/><line class="cls-1" x1="103.96" y1="227.16" x2="89.09" y2="240.8"/><path class="cls-1" d="M173.54,271.5h17.2V253.83" transform="translate(-8.71 -8.77)"/><line class="cls-1" x1="318.35" y1="315.17" x2="332.18" y2="328.43"/><circle class="cls-1" cx="127.69" cy="20.91" r="8.59"/><circle class="cls-2" cx="353.49" cy="357.91" r="5.34"/><rect class="cls-2" x="45.65" y="279.51" width="9.28" height="23.12" transform="translate(-27.06 -5) rotate(-3.64)"/><path class="cls-3" d="M175.61,187.87c-.31,1-.71,2.19-.71,2.19h-4.54l.64.46c.35.24,1.18.82,1.83,1.29l1.2.85s-.09.26-.21.57c-.81,2.09-1.73,4.49-1.73,4.49s4.16-3.52,4.18-3.51,4.14,3.52,4.14,3.51-.43-1.13-1-2.51l-1-2.53s.3-.25,3.12-2.24l.54-.38H177.6l-.7-2.17c-.35-1.06-.63-1.94-.63-1.94S175.93,186.89,175.61,187.87Z" transform="translate(-8.71 -8.77)"/><path class="cls-3" d="M386,261.05l-2.13.86-1.46-1.74L381,258.43l.06.78c0,.43.12,1.44.19,2.24l.11,1.46-.57.2-4.56,1.56,5.38.95s0,5.44,0,5.44.59-1.06,1.31-2.35l1.32-2.37s.39.07,3.72,1l.63.17-1.45-1.74L385.64,264l1.21-1.93,1.09-1.73S387,260.67,386,261.05Z" transform="translate(-8.71 -8.77)"/><polygon class="cls-1" points="67.68 147.48 82.74 155.25 66.56 168.52 67.68 147.48"/><rect class="cls-1" x="21.16" y="68.27" width="14.15" height="14.15" transform="translate(52.84 -6.67) rotate(45)"/><circle class="cls-3" cx="140.64" cy="94.14" r="3.51"/><circle class="cls-3" cx="11.3" cy="368.68" r="3.51"/><line class="cls-4" x1="10.17" y1="129.96" x2="0.23" y2="131.09"/><polygon class="cls-3" points="286.01 177.38 291.29 177.22 288.89 183.27 286.01 177.38"/><polygon class="cls-3" points="240.01 290.58 234.85 291.71 236.09 285.31 240.01 290.58"/><polygon class="cls-2" points="227.62 363.32 219.9 355.66 232.37 350.66 227.62 363.32"/><path class="cls-1" d="M374.59,181.26c-3.66-11.43,12.88-17.81,18.32-6.69" transform="translate(-8.71 -8.77)"/><polygon class="cls-2" points="218.6 128.11 226.03 115.46 234.8 128.11 226.7 139.52 218.6 128.11"/><polygon class="cls-3" points="123.39 336.91 120.92 330.8 127.83 331.14 129.68 337.15 123.39 336.91"/><path class="cls-2" d="M298.72,264.51c-.08-.11-4.7-5.2-4.7-5.2l2.13-7.32,7.37-2,4.83,6L306,262.78Z" transform="translate(-8.71 -8.77)"/></svg>