<svg width="300" height="300" viewBox="0 0 300 300" fill="none" xmlns="http://www.w3.org/2000/svg">
<g clip-path="url(#clip0_70_16)">
<path d="M137.461 4.46839C130.773 6.93873 108.675 14.931 88.3935 22.3056C68.1124 29.644 51.0298 36.0741 51.0298 36.0741C51.0298 36.0741 -0.0363877 128.748 -4.16426e-05 129.474C0.0363044 129.874 2.36245 143.606 5.16109 159.99C7.99608 176.374 11.9941 199.734 14.0659 211.904C16.1739 224.074 17.9912 234.173 18.1366 234.282C18.3184 234.427 32.8204 246.706 50.4119 261.565C68.0033 276.423 85.4131 291.136 89.1204 294.296L95.8444 300H150H204.156L233.596 275.115C249.806 261.419 267.107 246.743 272.086 242.528C277.066 238.278 281.645 234.464 281.645 234.464C281.645 234.464 285.243 215.754 291.023 182.151C295.929 153.56 300 129.474 300 129.474C300 129.474 287.388 105.534 267.034 68.6244C265.762 66.3357 261.364 58.3071 257.293 50.8234C253.186 43.3398 249.152 36.4374 249.152 36.4374C249.152 36.4374 239.702 32.4049 169.481 7.01138C158.796 3.12424 149.855 0 149.855 0C149.855 0 144.148 2.03439 137.461 4.46839Z" fill="black"/>
</g>
<defs>
<clipPath id="clip0_70_16">
<rect width="300" height="300" fill="white"/>
</clipPath>
</defs>
</svg>
