<svg width="372" height="372" viewBox="0 0 372 372" fill="none" xmlns="http://www.w3.org/2000/svg">
<g clip-path="url(#clip0_80_53)">
<path d="M192.814 349.418C199.21 348.793 203.577 342.835 202.459 336.612L194.46 293.19C193.45 287.75 188.518 283.92 182.995 284.307C165.35 285.538 148.707 282.342 133.528 274.794C85.1651 250.743 64.1026 191.198 88.1532 142.835C112.204 94.473 172.395 75.3355 220.758 99.3864C265.828 121.8 286.067 174.478 269.15 220.69L240.458 206.422C232.38 202.405 223.274 209.436 224.913 218.134L244.613 325.169C245.917 332.305 253.733 336.182 260.201 332.921L357.439 284.039C365.396 280.085 365.448 268.579 357.396 264.575L327.838 249.876C360.636 171.298 327.156 79.3693 249.835 40.9173C169.23 0.832584 69.7686 33.1545 29.6841 113.759C-10.4003 194.363 23.8467 293.178 104.451 333.263C131.725 346.826 162.281 352.407 192.814 349.418Z" fill="black"/>
</g>
<defs>
<clipPath id="clip0_80_53">
<rect width="371.484" height="371.484" fill="white" transform="translate(371.589 0.401001) rotate(90)"/>
</clipPath>
</defs>
</svg>
