<svg viewBox="0 0 1636 300">
    <defs>
    <style>
    .cls-1{fill:none;}
    .cls-2{clip-path:url(#clip-path);}
    .cls-3{clip-path:url(#clip-path-2);}
    .cls-4{clip-path:url(#clip-path-3);}
    .cls-5{clip-path:url(#clip-path-4);}
    .cls-6{clip-path:url(#clip-path-5);}
    </style>
    <clipPath id="clip-path">
    <rect class="cls-1" width="300" height="300"/></clipPath>
        <clipPath id="clip-path-2"><rect class="cls-1" x="334" width="300" height="300"/></clipPath>
        <clipPath id="clip-path-3"><rect class="cls-1" x="668" width="300" height="300"/></clipPath>
        <clipPath id="clip-path-4"><rect class="cls-1" x="1002" width="300" height="300"/></clipPath>
        <clipPath id="clip-path-5"><rect class="cls-1" x="1336" width="300" height="300"/></clipPath>
    </defs>
    <g class="cls-2">
        <path d="M133.77,48.91c-8.06,24.72-18.23,55.81-18.23,55.81l-57.79.07L0,104.89l16.3,11.5L63,149.3c16.66,11.78,30.36,21.6,30.43,21.8s-2.36,6.67-5.32,14.33C67.35,238.87,43.88,299.9,44,300s106.09-89.74,106.45-89.47C150.89,210.29,256,300.07,256,300s-11-28.85-24.55-63.95-24.72-64.19-24.72-64.57c0-.75,7.74-6.32,79.62-57L300,104.89l-57.75-.1-57.79-.07s-9.28-28.37-18.05-55.3S150.43,0,150.43,0,141.83,24.14,133.77,48.91Z"/>
    </g>
    <g class="cls-3">
        <path d="M467.77,48.91c-8.06,24.72-18.23,55.81-18.23,55.81l-57.79.07-57.75.1,16.3,11.5L397,149.3c16.66,11.78,30.36,21.6,30.43,21.8s-2.36,6.67-5.32,14.33C401.35,238.87,377.88,299.9,378,300s106.09-89.74,106.45-89.47C484.89,210.29,590,300.07,590,300s-11-28.85-24.55-63.95-24.72-64.19-24.72-64.57c0-.75,7.74-6.32,79.62-57L634,104.89l-57.75-.1-57.79-.07s-9.28-28.37-18.05-55.3S484.43,0,484.43,0,475.83,24.14,467.77,48.91Z"/>
    </g>
    <g class="cls-4">
        <path d="M801.77,48.91c-8.06,24.72-18.23,55.81-18.23,55.81l-57.79.07-57.75.1,16.3,11.5L731,149.3c16.66,11.78,30.36,21.6,30.43,21.8s-2.36,6.67-5.32,14.33C735.35,238.87,711.88,299.9,712,300s106.09-89.74,106.45-89.47C818.89,210.29,924,300.07,924,300s-11-28.85-24.55-63.95-24.72-64.19-24.72-64.57c0-.75,7.74-6.32,79.62-57L968,104.89l-57.75-.1-57.79-.07s-9.28-28.37-18.05-55.3S818.43,0,818.43,0,809.83,24.14,801.77,48.91Z"/>
    </g>
    <g class="cls-5">
        <path d="M1135.77,48.91c-8.06,24.72-18.23,55.81-18.23,55.81l-57.79.07-57.75.1,16.3,11.5L1065,149.3c16.66,11.78,30.36,21.6,30.43,21.8s-2.36,6.67-5.32,14.33C1069.35,238.87,1045.88,299.9,1046,300s106.09-89.74,106.45-89.47c.46-.24,105.52,89.54,105.59,89.47s-11-28.85-24.55-63.95-24.72-64.19-24.72-64.57c0-.75,7.74-6.32,79.62-57l13.63-9.61-57.75-.1-57.79-.07s-9.28-28.37-18-55.3-16-49.42-16-49.42S1143.83,24.14,1135.77,48.91Z"/>
    </g>
    <g class="cls-6">
        <path d="M1469.77,48.91c-8.06,24.72-18.23,55.81-18.23,55.81l-57.79.07-57.75.1,16.3,11.5L1399,149.3c16.66,11.78,30.36,21.6,30.43,21.8s-2.36,6.67-5.32,14.33C1403.35,238.87,1379.88,299.9,1380,300s106.09-89.74,106.45-89.47c.46-.24,105.52,89.54,105.59,89.47s-11-28.85-24.55-63.95-24.72-64.19-24.72-64.57c0-.75,7.74-6.32,79.62-57l13.63-9.61-57.75-.1-57.79-.07s-9.28-28.37-18-55.3-16-49.42-16-49.42S1477.83,24.14,1469.77,48.91Z"/>
    </g>
</svg>