<svg width="300" height="300" viewBox="0 0 300 300" fill="none" xmlns="http://www.w3.org/2000/svg">
<g clip-path="url(#clip0_54_2)">
<path d="M133.769 48.9067C125.707 73.6348 115.541 104.717 115.541 104.717L57.7527 104.785L0 104.888L16.302 116.394C25.2556 122.713 46.2663 137.516 62.9608 149.296C79.6195 161.076 93.3175 170.899 93.3888 171.105C93.4245 171.345 91.0345 177.768 88.0737 185.426C67.3484 238.867 43.8763 299.897 43.9834 300C44.0547 300.069 150.071 210.258 150.428 210.532C150.892 210.292 255.945 300.069 256.017 300C256.088 299.931 245.03 271.151 231.474 236.05C217.883 200.916 206.754 171.86 206.754 171.483C206.718 170.727 214.495 165.163 286.373 114.505L300 104.888L242.247 104.785L184.459 104.717C184.459 104.717 175.184 76.348 166.409 49.4219C157.634 22.4957 150.428 0 150.428 0C150.428 0 141.831 24.1442 133.769 48.9067Z" fill="black"/>
</g>
<defs>
<clipPath id="clip0_54_2">
<rect width="300" height="300" fill="white"/>
</clipPath>
</defs>
</svg>
