<?xml version="1.0" encoding="utf-8"?>
<!-- Generator: Adobe Illustrator 25.3.1, SVG Export Plug-In . SVG Version: 6.00 Build 0)  -->
<svg version="1.1" id="Camada_1" xmlns="http://www.w3.org/2000/svg" xmlns:xlink="http://www.w3.org/1999/xlink" x="0px" y="0px"
	 viewBox="0 0 841 873.5" style="enable-background:new 0 0 841 873.5;" xml:space="preserve">
<path d="M375,142.4c-22.6,72-51.1,162.5-51.1,162.5l-162,0.2L0,305.4l45.7,33.5c25.1,18.4,84,61.5,130.8,95.8
	c46.7,34.3,85.1,62.9,85.3,63.5c0.1,0.7-6.6,19.4-14.9,41.7C188.8,695.5,123,873.2,123.3,873.5c0.2,0.2,297.4-261.3,298.4-260.5
	c1.3-0.7,295.8,260.7,296,260.5c0.2-0.2-30.8-84-68.8-186.2c-38.1-102.3-69.3-186.9-69.3-188c-0.1-2.2,21.7-18.4,223.2-165.9
	l38.2-28l-161.9-0.3l-162-0.2c0,0-26-82.6-50.6-161S421.7,0,421.7,0S397.6,70.3,375,142.4z"/>
</svg>
